<svg xmlns="http://www.w3.org/2000/svg" width="36.228" height="36" viewBox="14.09 -0.002 36.228 36" enable-background="new 14.09 -0.002 36.228 36"><path fill="#9E005D" d="M18.458-.002c.596 0 1.162.122 1.695.356.54.234 1.009.553 1.417.938.403.394.717.854.942 1.396.221.534.333 1.096.333 1.696 0 .6-.112 1.162-.333 1.688-.225.525-.539.994-.942 1.377-.407.394-.877.703-1.417.947-.533.234-1.101.356-1.695.356-.601 0-1.162-.122-1.692-.356-.524-.245-.989-.553-1.377-.947-.389-.384-.704-.853-.943-1.377-.238-.525-.355-1.087-.355-1.688s.117-1.163.355-1.697c.239-.543.554-1.003.942-1.397.388-.384.854-.702 1.377-.937.53-.233 1.092-.355 1.693-.355zm3.26 11.351c.245 0 .46.084.651.271.191.188.291.403.291.666v22.766c0 .245-.1.468-.291.657-.191.196-.408.289-.651.289h-6.457c-.244 0-.464-.093-.656-.289-.188-.189-.286-.413-.286-.658v-22.765c0-.244.1-.458.286-.657.193-.187.412-.281.656-.281l6.457.001zm18.999-.581c2.91 0 5.234.73 6.982 2.192 1.746 1.472 2.618 3.712 2.618 6.748v15.342c0 .244-.099.47-.285.656-.192.196-.412.29-.656.29h-6.641c-.243 0-.455-.094-.633-.29-.174-.188-.263-.412-.263-.656v-13.87c0-1.162-.211-2.052-.633-2.672-.422-.609-1.275-.918-2.56-.918-.814 0-1.494.141-2.048.403-.55.272-.983.628-1.299 1.077-.314.459-.529.994-.651 1.623-.127.627-.187 1.303-.187 2.024v12.334c0 .245-.095.47-.287.657-.191.195-.407.289-.655.289h-6.449c-.243 0-.463-.094-.655-.291-.192-.188-.287-.411-.287-.655v-22.765c0-.244.094-.458.287-.657.191-.187.412-.281.655-.281h6.271c.506 0 .787.188.849.581.065.395.094.761.094 1.115.872-.815 1.864-1.395 2.977-1.743 1.107-.355 2.26-.533 3.456-.533z"/></svg>