<svg xmlns="http://www.w3.org/2000/svg" width="41.616" height="36" viewBox="6.198 -4.321 41.616 36" enable-background="new 6.198 -4.321 41.616 36"><path fill="#9E005D" d="M47.814 14.24c0 3.503-.496 6.38-1.498 8.641-.996 2.262-2.414 4.045-4.248 5.332-1.827 1.297-4.024 2.197-6.577 2.704-2.552.513-5.378.763-8.472.763-3.106 0-5.948-.25-8.518-.763-2.57-.505-4.762-1.407-6.578-2.704-1.82-1.286-3.226-3.07-4.229-5.332-.995-2.26-1.497-5.139-1.497-8.641 0-1.719.275-3.392.837-5.011.551-1.617 1.402-3.07 2.546-4.357l-.068-.092.069-.047c-.238-.588-.404-1.195-.487-1.829-.083-.624-.12-1.268-.12-1.912 0-.376.009-.799.041-1.269.032-.478.087-.965.179-1.479.092-.505.207-.983.35-1.434.148-.44.322-.818.533-1.131h.175c.919 0 1.746.093 2.491.275.745.194 1.453.451 2.133.792.671.34 1.329.727 1.958 1.177.634.442 1.314.892 2.05 1.36 1.292-.377 2.634-.625 4.021-.744 1.395-.12 2.764-.184 4.115-.184 1.351 0 2.721.064 4.1.184 1.379.119 2.734.367 4.055.744.708-.469 1.383-.92 2.031-1.36.645-.45 1.296-.837 1.958-1.177.661-.34 1.36-.597 2.104-.792.744-.183 1.576-.275 2.491-.275h.224c.182.295.347.671.482 1.122.148.45.264.938.352 1.443.091.515.158 1.002.201 1.479.045.469.073.892.073 1.269 0 .645-.047 1.287-.139 1.913-.093.633-.238 1.241-.45 1.829v.046l-.046.093c1.14 1.287 1.985 2.739 2.537 4.357.552 1.619.821 3.292.821 5.01zm-13.696-1.893c-1.173 0-2.345.055-3.526.165-1.18.101-2.357.156-3.523.156-1.174 0-2.354-.055-3.541-.156-1.185-.11-2.36-.165-3.539-.165-2.432 0-4.398.662-5.902 1.967-1.503 1.305-2.251 3.235-2.251 5.792 0 2.179.482 3.859 1.453 5.047.97 1.187 2.206 2.061 3.718 2.611 1.512.553 3.153.883 4.933.965 1.783.092 3.494.139 5.131.139 1.111 0 2.252-.01 3.434-.047 1.182-.027 2.33-.119 3.46-.275 1.126-.166 2.197-.413 3.209-.771 1.015-.35 1.897-.855 2.647-1.517.754-.664 1.351-1.5 1.802-2.519.451-1.014.681-2.254.681-3.725 0-1.259-.201-2.371-.611-3.328-.404-.946-.971-1.746-1.688-2.398-.727-.644-1.581-1.131-2.583-1.453-1.002-.323-2.099-.488-3.304-.488zm-16.786 6.83c0-.993.198-1.838.597-2.546.395-.708.891-1.058 1.475-1.058.583 0 1.084.35 1.498 1.058.415.709.622 1.555.622 2.546 0 .991-.207 1.839-.622 2.537-.413.699-.914 1.048-1.498 1.048s-1.081-.349-1.475-1.048c-.399-.698-.597-1.544-.597-2.537zm9.689 8.339c-.645 0-1.232-.211-1.756-.645-.529-.422-.91-.993-1.149-1.7-.093-.237 0-.422.267-.56.24-.092.424.009.542.291.404 1.141 1.103 1.701 2.097 1.693.463 0 .892-.156 1.272-.469.383-.303.649-.718.8-1.225.12-.303.317-.403.583-.291.24.092.341.274.294.56-.238.708-.625 1.277-1.148 1.7-.524.433-1.126.646-1.802.646zm1.329-4.846c0-.184-.133-.339-.391-.468-.268-.138-.579-.212-.938-.212-.379 0-.699.074-.957.212-.267.128-.396.284-.396.468s.129.339.396.488c.258.136.58.21.957.21.375 0 .688-.074.946-.21.258-.147.383-.303.383-.488zm8.36-3.493c0-.993-.202-1.838-.606-2.546-.41-.708-.896-1.058-1.465-1.058-.584 0-1.091.35-1.513 1.058-.418.709-.63 1.555-.63 2.546 0 .991.212 1.839.63 2.537.423.699.929 1.048 1.513 1.048.582 0 1.074-.349 1.475-1.048.394-.698.596-1.544.596-2.537z"/></svg>