<svg xmlns="http://www.w3.org/2000/svg" width="36" height="36" viewBox="14.5 -1.165 36 36" enable-background="new 14.5 -1.165 36 36"><g fill="#9E005D"><path d="M32.5 33.991c-9.46 0-17.157-7.696-17.157-17.155 0-9.46 7.696-17.157 17.157-17.157 9.459 0 17.156 7.696 17.156 17.157 0 9.459-7.697 17.155-17.156 17.155zm2.688-16.006c-5.703 1.604-10.549 5.291-13.645 10.382l-.373.611.544.467c2.993 2.568 6.824 3.982 10.786 3.982 2.012 0 3.977-.354 5.84-1.053l.582-.217-.035-.622c-.262-4.459-1.16-8.843-2.677-13.025l-.269-.738-.753.213zm6.312-.868c-1.335 0-2.68.115-3.996.343l-.984.171.334.942c1.369 3.87 2.223 7.927 2.537 12.057l.103 1.324 1.155-.654c1.309-.737 2.516-1.657 3.586-2.729 2.6-2.601 4.229-5.887 4.713-9.504l.094-.708-.682-.21c-2.219-.686-4.527-1.032-6.86-1.032zm-25.529-1.752c-.043.498-.065.993-.065 1.47 0 4.017 1.451 7.888 4.084 10.901l.74.849.606-.95c3.138-4.914 7.929-8.512 13.493-10.131l.908-.265-.366-.873c-.433-1.029-.91-2.06-1.42-3.064l-.336-.659-.695.247c-3.736 1.312-7.662 1.978-11.669 1.978-1.437 0-2.894-.09-4.335-.266l-.869-.107-.076.87zm25.529 1.189c2.211 0 4.402.304 6.518.904l1.088.309-.013-1.13c-.044-3.764-1.311-7.294-3.665-10.207l-.549-.68-.66.572c-2.771 2.4-5.871 4.338-9.216 5.76l-.827.352.403.803c.54 1.077 1.036 2.166 1.474 3.237l.264.639.678-.13c1.485-.284 3.002-.429 4.505-.429zm-16.451-14.555c-1.576.794-3.018 1.837-4.283 3.103-2.19 2.191-3.721 4.93-4.42 7.918l-.214.917.935.113c1.387.168 2.793.254 4.184.254 3.805 0 7.548-.619 11.129-1.838l.969-.33-.509-.888c-1.887-3.289-4.175-6.343-6.8-9.079l-.432-.45-.559.28zm7.451-1.758c-1.734 0-3.441.266-5.076.788l-1.262.404.9.973c2.496 2.698 4.672 5.677 6.465 8.856l.369.654.69-.291c3.338-1.401 6.429-3.313 9.187-5.686l.715-.615-.689-.642c-3.074-2.863-7.088-4.441-11.299-4.441zM32.5-1.165c-9.941 0-18 8.059-18 18 0 9.94 8.059 18 18 18s18-8.06 18-18c0-9.941-8.059-18-18-18zm1.764 12.014c-1.816-3.22-4.018-6.245-6.582-9.016 1.537-.492 3.158-.748 4.818-.748 4.016 0 7.802 1.494 10.725 4.217-2.661 2.288-5.681 4.17-8.961 5.547zm-13.014 2.611c-1.382 0-2.744-.085-4.083-.248.662-2.823 2.095-5.413 4.196-7.514 1.209-1.209 2.582-2.198 4.066-2.945 2.57 2.68 4.815 5.673 6.676 8.915-3.407 1.161-7.058 1.792-10.855 1.792zm15.585 2.695c-.457-1.117-.96-2.215-1.502-3.295 3.405-1.448 6.586-3.428 9.438-5.898 2.215 2.742 3.435 6.119 3.478 9.686-2.146-.609-4.409-.937-6.748-.937-1.597-.001-3.153.154-4.666.444zm-15.585-.445c4.135 0 8.161-.694 11.95-2.025.499.983.965 1.986 1.396 3.009-5.828 1.696-10.773 5.481-13.97 10.488-2.506-2.869-3.875-6.502-3.875-10.347 0-.469.022-.936.062-1.397 1.46.179 2.941.272 4.437.272zm18.982 14.854c-.323-4.23-1.196-8.35-2.584-12.273 1.252-.217 2.539-.331 3.852-.331 2.3 0 4.52.349 6.609.993-.455 3.404-2.004 6.551-4.473 9.02-1.027 1.027-2.172 1.895-3.404 2.591zm-7.732 2.02c-3.795 0-7.387-1.333-10.236-3.779 2.928-4.814 7.609-8.449 13.153-10.008 1.459 4.029 2.365 8.323 2.627 12.787-1.749.658-3.62 1-5.544 1z"/></g></svg>