<svg xmlns="http://www.w3.org/2000/svg" width="41.617" height="36" viewBox="6.198 -4.321 41.617 36" enable-background="new 6.198 -4.321 41.617 36"><path fill="#8BB7B6" d="M47.815 14.24c0 3.503-.497 6.38-1.499 8.641-.996 2.262-2.413 4.045-4.247 5.332-1.828 1.297-4.025 2.197-6.578 2.704-2.551.513-5.378.762-8.471.762-3.107 0-5.948-.25-8.518-.762-2.57-.505-4.762-1.407-6.578-2.704-1.82-1.286-3.226-3.07-4.229-5.332-.995-2.26-1.497-5.139-1.497-8.641 0-1.719.275-3.392.837-5.011.551-1.617 1.402-3.07 2.546-4.357l-.069-.092.069-.047c-.238-.588-.404-1.195-.487-1.829-.083-.624-.12-1.268-.12-1.912 0-.376.009-.799.041-1.269.032-.478.087-.965.179-1.479.092-.505.207-.983.35-1.434.148-.44.322-.818.533-1.131h.175c.919 0 1.746.093 2.491.275.745.194 1.453.451 2.133.792.671.34 1.329.727 1.958 1.177.634.442 1.314.892 2.05 1.36 1.292-.377 2.634-.625 4.021-.744 1.394-.12 2.763-.184 4.114-.184s2.721.064 4.1.184c1.379.119 2.735.367 4.055.744.708-.469 1.382-.92 2.031-1.36.644-.45 1.296-.837 1.958-1.177.661-.34 1.36-.597 2.105-.792.744-.183 1.576-.275 2.491-.275h.224c.181.295.346.671.482 1.122.148.45.263.938.351 1.443.091.515.159 1.002.202 1.479.045.469.073.892.073 1.269 0 .645-.047 1.287-.139 1.913-.092.633-.238 1.241-.45 1.829v.046l-.046.093c1.14 1.287 1.985 2.739 2.537 4.357.552 1.619.822 3.292.822 5.01zm-13.697-1.893c-1.172 0-2.344.055-3.526.165-1.18.101-2.357.156-3.524.156-1.173 0-2.354-.055-3.54-.156-1.185-.11-2.361-.165-3.539-.165-2.432 0-4.398.662-5.902 1.967-1.503 1.305-2.251 3.235-2.251 5.792 0 2.178.482 3.859 1.453 5.047.97 1.186 2.206 2.06 3.718 2.61 1.512.553 3.153.883 4.933.966 1.783.092 3.493.138 5.13.138 1.112 0 2.252-.01 3.434-.046 1.181-.028 2.33-.12 3.46-.276 1.126-.166 2.197-.413 3.209-.772 1.015-.349 1.898-.855 2.648-1.516.753-.664 1.35-1.5 1.801-2.519.451-1.013.681-2.253.681-3.724 0-1.259-.202-2.371-.611-3.328-.405-.946-.972-1.746-1.688-2.398-.726-.644-1.581-1.131-2.583-1.453-1.001-.323-2.098-.488-3.303-.488zm-16.786 6.83c0-.993.198-1.838.597-2.546.395-.708.891-1.058 1.475-1.058.583 0 1.084.35 1.498 1.058.414.709.621 1.555.621 2.546s-.207 1.839-.621 2.537c-.413.699-.914 1.048-1.498 1.048s-1.081-.349-1.475-1.048c-.399-.699-.597-1.544-.597-2.537zm9.689 8.339c-.644 0-1.232-.212-1.756-.645-.529-.422-.91-.993-1.149-1.7-.092-.238 0-.422.267-.56.24-.092.423.009.542.292.404 1.14 1.103 1.701 2.096 1.693.464 0 .892-.156 1.273-.469.383-.303.649-.718.8-1.224.12-.304.317-.404.583-.292.24.092.34.275.294.56-.239.708-.625 1.277-1.149 1.7-.523.432-1.125.645-1.801.645zm1.329-4.846c0-.184-.133-.339-.391-.468-.267-.138-.579-.212-.938-.212-.378 0-.699.074-.956.212-.267.128-.396.285-.396.468 0 .184.129.339.396.488.257.136.579.21.956.21.376 0 .689-.074.947-.21.257-.147.382-.303.382-.488zm8.36-3.493c0-.993-.202-1.838-.606-2.546-.41-.708-.897-1.058-1.466-1.058-.584 0-1.09.35-1.512 1.058-.418.709-.63 1.555-.63 2.546s.212 1.839.63 2.537c.423.699.928 1.048 1.512 1.048.582 0 1.075-.349 1.475-1.048.395-.699.597-1.544.597-2.537z"/></svg>