<svg xmlns="http://www.w3.org/2000/svg" width="43.199" height="36" viewBox="16.797 0 43.199 36" enable-background="new 16.797 0 43.199 36"><path fill="#8CB7B6" d="M57.318 0c.736 0 1.367.268 1.894.798.521.53.784 1.162.784 1.898v30.606c0 .737-.264 1.368-.784 1.903-.527.527-1.159.795-1.894.795h-37.827c-.734 0-1.368-.268-1.898-.794-.53-.535-.796-1.166-.796-1.902v-30.608c0-.736.266-1.368.796-1.898.53-.53 1.163-.798 1.898-.798h37.827zm-36.911 3.61v1.523c0 .488.107.995.327 1.54.218.536.495 1.052.832 1.559.335.498.703.966 1.102 1.396.397.42.792.784 1.184 1.081 1.561 1.195 3.12 2.372 4.676 3.528 1.554 1.167 3.113 2.362 4.676 3.577.311.248.686.545 1.124.879.438.334.892.669 1.36.984.469.325.935.593 1.394.823.461.229.887.334 1.279.334h.093c.39 0 .814-.105 1.278-.334.459-.23.918-.498 1.383-.823.459-.315.902-.65 1.333-.984l1.139-.879c1.562-1.215 3.121-2.41 4.676-3.586l4.676-3.519c.392-.277.784-.631 1.186-1.071.396-.439.765-.908 1.1-1.406.334-.507.616-1.022.842-1.559.229-.545.344-1.052.344-1.54v-1.523h-36.004zm36.003 28.785v-19.976c-.488.487-.938.88-1.362 1.176-1.655 1.252-3.313 2.496-4.978 3.738-1.664 1.243-3.319 2.516-4.964 3.834-.946.765-1.979 1.501-3.078 2.2-1.101.708-2.324 1.052-3.667 1.052-1.282 0-2.477-.344-3.586-1.052-1.109-.698-2.142-1.435-3.093-2.2-1.626-1.32-3.275-2.601-4.947-3.844-1.673-1.253-3.337-2.496-4.991-3.729-.423-.278-.868-.669-1.336-1.176v19.976h36.002v.001z"/></svg>