<svg xmlns="http://www.w3.org/2000/svg" width="36.229" height="36" viewBox="14.09 -0.002 36.229 36" enable-background="new 14.09 -0.002 36.229 36"><path fill="#8BB7B6" d="M18.458-.002c.596 0 1.162.122 1.696.356.54.234 1.008.553 1.417.938.403.394.716.854.942 1.396.221.534.333 1.096.333 1.696s-.112 1.162-.333 1.688c-.225.525-.539.994-.942 1.377-.408.394-.877.703-1.417.947-.534.234-1.101.356-1.696.356-.6 0-1.162-.122-1.692-.356-.525-.245-.989-.553-1.377-.947-.389-.384-.704-.853-.943-1.377-.239-.525-.356-1.087-.356-1.687 0-.601.117-1.163.356-1.697.239-.543.553-1.003.942-1.397.388-.384.853-.702 1.377-.937.53-.234 1.092-.356 1.693-.356zm3.26 11.351c.245 0 .46.084.651.271.192.188.291.403.291.666v22.766c0 .245-.099.468-.291.657-.191.196-.408.289-.651.289h-6.457c-.244 0-.464-.093-.656-.289-.188-.189-.286-.413-.286-.658v-22.765c0-.244.099-.458.286-.657.193-.187.412-.281.656-.281l6.457.001zm18.999-.581c2.91 0 5.234.73 6.982 2.192 1.747 1.472 2.619 3.712 2.619 6.748v15.342c0 .244-.099.469-.286.656-.192.197-.412.29-.656.29h-6.64c-.244 0-.455-.093-.633-.29-.174-.188-.263-.412-.263-.656v-13.871c0-1.161-.211-2.051-.633-2.671-.422-.609-1.275-.918-2.559-.918-.815 0-1.494.141-2.048.403-.55.272-.984.628-1.299 1.078-.314.458-.529.994-.651 1.622-.127.628-.187 1.303-.187 2.025v12.334c0 .245-.095.469-.287.657-.191.195-.407.289-.655.289h-6.451c-.244 0-.463-.094-.656-.291-.192-.188-.287-.411-.287-.655v-22.766c0-.244.094-.458.287-.657.192-.187.412-.281.656-.281h6.27c.506 0 .787.188.849.581.065.395.093.761.093 1.115.873-.815 1.865-1.395 2.977-1.743 1.109-.355 2.262-.533 3.458-.533z"/></svg>