<svg xmlns="http://www.w3.org/2000/svg" width="43.199" height="36" viewBox="16.797 0 43.199 36" enable-background="new 16.797 0 43.199 36"><path fill="#9E005D" d="M57.318 0c.736 0 1.367.268 1.894.798.521.53.784 1.162.784 1.898v30.606c0 .737-.264 1.368-.784 1.903-.526.527-1.159.795-1.894.795h-37.827c-.734 0-1.368-.268-1.898-.794-.53-.535-.796-1.166-.796-1.901v-30.609c0-.736.266-1.368.796-1.898.53-.53 1.163-.798 1.898-.798h37.827zm-36.911 3.61v1.523c0 .488.107.995.327 1.54.218.536.495 1.052.832 1.559.335.498.704.966 1.102 1.396.396.42.792.784 1.184 1.081 1.562 1.195 3.121 2.372 4.676 3.528 1.555 1.167 3.113 2.362 4.677 3.577.312.248.687.545 1.124.879.438.334.893.668 1.359.983.47.325.936.593 1.395.823.461.229.887.334 1.279.334h.093c.39 0 .813-.105 1.278-.334.459-.23.918-.498 1.383-.823.459-.315.902-.649 1.333-.983l1.139-.879c1.562-1.215 3.121-2.41 4.677-3.586l4.676-3.519c.392-.277.783-.631 1.186-1.071.396-.439.766-.908 1.1-1.406.334-.507.616-1.022.842-1.559.229-.545.345-1.052.345-1.54v-1.523h-36.007zm36.003 28.785v-19.976c-.488.487-.938.88-1.362 1.176-1.655 1.252-3.313 2.496-4.978 3.738-1.664 1.243-3.319 2.517-4.965 3.834-.945.765-1.979 1.501-3.078 2.2-1.101.708-2.323 1.052-3.666 1.052-1.282 0-2.478-.344-3.586-1.052-1.109-.698-2.143-1.436-3.094-2.2-1.625-1.319-3.274-2.601-4.947-3.844-1.672-1.253-3.336-2.496-4.99-3.729-.423-.278-.868-.669-1.336-1.176v19.977h36.002z"/></svg>