<svg xmlns="http://www.w3.org/2000/svg" width="51.08" height="36" viewBox="-6.948 -9.452 51.08 36" enable-background="new -6.948 -9.452 51.08 36"><path fill="#8BB7B6" d="M42.442 5.984c.424-.073.814 0 1.164.209.35.21.526.566.526 1.069 0 .532-.244.996-.735 1.385-.491.384-1.057.73-1.701 1.033-.65.306-1.324.543-2.013.713-.691.165-1.231.266-1.617.305-.796 2.565-2.023 4.839-3.687 6.817-1.667 1.979-3.606 3.629-5.823 4.939-2.216 1.323-4.603 2.342-7.153 3.043-2.549.701-5.087 1.05-7.62 1.05-4.043 0-7.881-.859-11.505-2.59-3.619-1.729-6.621-4.252-9-7.586-.146-.294-.226-.532-.226-.713 0-.373.125-.68.374-.926.248-.261.564-.385.927-.385.26 0 .548.114.859.34 2.273 2.012 4.93 3.008 7.961 2.996 1.084 0 2.17-.147 3.255-.417 1.081-.283 2.07-.725 2.975-1.335-.531-.294-.973-.677-1.312-1.163-.344-.477-.515-1.019-.515-1.605 0-.418.074-.782.221-1.086-.328-.102-.746-.293-1.232-.562-.486-.266-.961-.581-1.414-.938-.453-.362-.832-.758-1.137-1.198-.306-.431-.458-.86-.458-1.284 0-.3.09-.561.277-.792.187-.234.418-.437.696-.624-.757-.463-1.459-1.148-2.109-2.052-.645-.905-.966-1.81-.966-2.713 0-.611.305-1.008.915-1.194-.649-.649-1.164-1.396-1.538-2.244-.384-.848-.57-1.731-.57-2.635 0-.424.083-.808.266-1.153.169-.34.52-.51 1.034-.51.333 0 1.113.249 2.33.747 1.215.498 2.538 1.057 3.952 1.679 1.413.616 2.764 1.244 4.059 1.872 1.289.627 2.193 1.068 2.713 1.328.464.26.905.549 1.318.87.412.323.825.663 1.232 1.013.367-.939.809-1.922 1.306-2.952.498-1.024 1.052-2.007 1.664-2.952.609-.938 1.283-1.831 2.023-2.657.736-.836 1.56-1.514 2.464-2.051.148-.115.368-.17.668-.17.328 0 .577.073.747.22.293-.108.679-.232 1.153-.374.464-.136.858-.204 1.175-.204.532 0 .928.249 1.187.746.578 0 1.097.147 1.573.43.463.289.701.752.701 1.402 0 .57-.25 1.063-.747 1.464 1.776.798 3.246 1.951 4.422 3.467 1.175 1.514 2.011 3.199 2.51 5.042.106.039.315.057.633.057.87 0 1.685-.152 2.442-.458.758-.305 1.282-.458 1.576-.458.335 0 .628.136.877.401.248.272.373.571.373.905 0 .423-.18.87-.543 1.34-.362.477-.667.839-.927 1.099z"/></svg>