<?xml version="1.0" encoding="utf-8"?>
<!-- Generator: Adobe Illustrator 16.2.1, SVG Export Plug-In . SVG Version: 6.00 Build 0)  -->
<!DOCTYPE svg PUBLIC "-//W3C//DTD SVG 1.1//EN" "http://www.w3.org/Graphics/SVG/1.1/DTD/svg11.dtd">
<svg version="1.1" id="Layer_1" xmlns="http://www.w3.org/2000/svg" xmlns:xlink="http://www.w3.org/1999/xlink" x="0px" y="0px"
	 width="43.199px" height="36px" viewBox="16.797 0 43.199 36" enable-background="new 16.797 0 43.199 36" xml:space="preserve">
<path fill="#9E005D" d="M57.318,0c0.736,0,1.367,0.268,1.894,0.798c0.521,0.53,0.784,1.162,0.784,1.898v30.606
	c0,0.737-0.264,1.368-0.784,1.903C58.686,35.732,58.053,36,57.318,36H19.491c-0.734,0-1.368-0.268-1.898-0.794
	c-0.53-0.535-0.796-1.166-0.796-1.901V2.696c0-0.736,0.266-1.368,0.796-1.898C18.123,0.268,18.756,0,19.491,0H57.318L57.318,0z
	 M20.407,3.61v1.523c0,0.488,0.107,0.995,0.327,1.54c0.218,0.536,0.495,1.052,0.832,1.559c0.335,0.498,0.704,0.966,1.102,1.396
	c0.396,0.42,0.792,0.784,1.184,1.081c1.562,1.195,3.121,2.372,4.676,3.528c1.555,1.167,3.113,2.362,4.677,3.577
	c0.312,0.248,0.687,0.545,1.124,0.879c0.438,0.334,0.893,0.668,1.359,0.983c0.47,0.325,0.936,0.593,1.395,0.823
	c0.461,0.229,0.887,0.334,1.279,0.334h0.045h0.048c0.39,0,0.813-0.105,1.278-0.334c0.459-0.23,0.918-0.498,1.383-0.823
	c0.459-0.315,0.902-0.649,1.333-0.983c0.431-0.335,0.813-0.631,1.139-0.879c1.562-1.215,3.121-2.41,4.677-3.586
	c1.553-1.167,3.111-2.343,4.676-3.519c0.392-0.277,0.783-0.631,1.186-1.071c0.396-0.439,0.766-0.908,1.1-1.406
	c0.334-0.507,0.616-1.022,0.842-1.559c0.229-0.545,0.345-1.052,0.345-1.54V3.61H20.407z M56.41,32.395V12.419
	c-0.488,0.487-0.938,0.88-1.362,1.176c-1.655,1.252-3.313,2.496-4.978,3.738c-1.664,1.243-3.319,2.517-4.965,3.834
	c-0.945,0.765-1.979,1.501-3.078,2.2c-1.101,0.708-2.323,1.052-3.666,1.052c-1.282,0-2.478-0.344-3.586-1.052
	c-1.109-0.698-2.143-1.436-3.094-2.2c-1.625-1.319-3.274-2.601-4.947-3.844c-1.672-1.253-3.336-2.496-4.99-3.729
	c-0.423-0.278-0.868-0.669-1.336-1.176v19.977H56.41L56.41,32.395z"/>
</svg>
