<?xml version="1.0" encoding="utf-8"?>
<!-- Generator: Adobe Illustrator 16.0.0, SVG Export Plug-In . SVG Version: 6.00 Build 0)  -->
<!DOCTYPE svg PUBLIC "-//W3C//DTD SVG 1.1//EN" "http://www.w3.org/Graphics/SVG/1.1/DTD/svg11.dtd">
<svg version="1.1" id="Layer_1" xmlns="http://www.w3.org/2000/svg" xmlns:xlink="http://www.w3.org/1999/xlink" x="0px" y="0px"
	 width="41.617px" height="36px" viewBox="6.198 -4.321 41.617 36" enable-background="new 6.198 -4.321 41.617 36"
	 xml:space="preserve">
<path fill="#8BB7B6" d="M47.815,14.24c0,3.503-0.497,6.38-1.499,8.641c-0.996,2.262-2.413,4.045-4.247,5.332
	c-1.828,1.297-4.025,2.197-6.578,2.704c-2.551,0.513-5.378,0.762-8.471,0.762c-3.107,0-5.948-0.25-8.518-0.762
	c-2.57-0.505-4.762-1.407-6.578-2.704c-1.82-1.286-3.226-3.07-4.229-5.332C6.7,20.621,6.198,17.742,6.198,14.24
	c0-1.719,0.275-3.392,0.837-5.011c0.551-1.617,1.402-3.07,2.546-4.357L9.512,4.78l0.069-0.047C9.343,4.145,9.177,3.538,9.094,2.904
	c-0.083-0.624-0.12-1.268-0.12-1.912c0-0.376,0.009-0.799,0.041-1.269c0.032-0.478,0.087-0.965,0.179-1.479
	c0.092-0.505,0.207-0.983,0.35-1.434c0.148-0.44,0.322-0.818,0.533-1.131h0.175c0.919,0,1.746,0.093,2.491,0.275
	c0.745,0.194,1.453,0.451,2.133,0.792c0.671,0.34,1.329,0.727,1.958,1.177c0.634,0.442,1.314,0.892,2.05,1.36
	c1.292-0.377,2.634-0.625,4.021-0.744c1.394-0.12,2.763-0.184,4.114-0.184s2.721,0.064,4.1,0.184
	c1.379,0.119,2.735,0.367,4.055,0.744c0.708-0.469,1.382-0.92,2.031-1.36c0.644-0.45,1.296-0.837,1.958-1.177
	c0.661-0.34,1.36-0.597,2.105-0.792c0.744-0.183,1.576-0.275,2.491-0.275h0.224c0.181,0.295,0.346,0.671,0.482,1.122
	c0.148,0.45,0.263,0.938,0.351,1.443c0.091,0.515,0.159,1.002,0.202,1.479c0.045,0.469,0.073,0.892,0.073,1.269
	c0,0.645-0.047,1.287-0.139,1.913c-0.092,0.633-0.238,1.241-0.45,1.829V4.78l-0.046,0.093c1.14,1.287,1.985,2.739,2.537,4.357
	C47.545,10.849,47.815,12.522,47.815,14.24z M34.118,12.347c-1.172,0-2.344,0.055-3.526,0.165c-1.18,0.101-2.357,0.156-3.524,0.156
	c-1.173,0-2.354-0.055-3.54-0.156c-1.185-0.11-2.361-0.165-3.539-0.165c-2.432,0-4.398,0.662-5.902,1.967
	c-1.503,1.305-2.251,3.235-2.251,5.792c0,2.178,0.482,3.859,1.453,5.047c0.97,1.186,2.206,2.06,3.718,2.61
	c1.512,0.553,3.153,0.883,4.933,0.966c1.783,0.092,3.493,0.138,5.13,0.138c1.112,0,2.252-0.01,3.434-0.046
	c1.181-0.028,2.33-0.12,3.46-0.276c1.126-0.166,2.197-0.413,3.209-0.772c1.015-0.349,1.898-0.855,2.648-1.516
	c0.753-0.664,1.35-1.5,1.801-2.519c0.451-1.013,0.681-2.253,0.681-3.724c0-1.259-0.202-2.371-0.611-3.328
	c-0.405-0.946-0.972-1.746-1.688-2.398c-0.726-0.644-1.581-1.131-2.583-1.453C36.42,12.512,35.323,12.347,34.118,12.347z
	 M17.332,19.177c0-0.993,0.198-1.838,0.597-2.546c0.395-0.708,0.891-1.058,1.475-1.058c0.583,0,1.084,0.35,1.498,1.058
	c0.414,0.709,0.621,1.555,0.621,2.546s-0.207,1.839-0.621,2.537c-0.413,0.699-0.914,1.048-1.498,1.048
	c-0.584,0-1.081-0.349-1.475-1.048C17.53,21.015,17.332,20.17,17.332,19.177z M27.021,27.516c-0.644,0-1.232-0.212-1.756-0.645
	c-0.529-0.422-0.91-0.993-1.149-1.7c-0.092-0.238,0-0.422,0.267-0.56c0.24-0.092,0.423,0.009,0.542,0.292
	c0.404,1.14,1.103,1.701,2.096,1.693c0.464,0,0.892-0.156,1.273-0.469c0.383-0.303,0.649-0.718,0.8-1.224
	c0.12-0.304,0.317-0.404,0.583-0.292c0.24,0.092,0.34,0.275,0.294,0.56c-0.239,0.708-0.625,1.277-1.149,1.7
	C28.299,27.303,27.697,27.516,27.021,27.516z M28.35,22.67c0-0.184-0.133-0.339-0.391-0.468c-0.267-0.138-0.579-0.212-0.938-0.212
	c-0.378,0-0.699,0.074-0.956,0.212c-0.267,0.128-0.396,0.285-0.396,0.468c0,0.184,0.129,0.339,0.396,0.488
	c0.257,0.136,0.579,0.21,0.956,0.21c0.376,0,0.689-0.074,0.947-0.21C28.225,23.011,28.35,22.855,28.35,22.67z M36.71,19.177
	c0-0.993-0.202-1.838-0.606-2.546c-0.41-0.708-0.897-1.058-1.466-1.058c-0.584,0-1.09,0.35-1.512,1.058
	c-0.418,0.709-0.63,1.555-0.63,2.546s0.212,1.839,0.63,2.537c0.423,0.699,0.928,1.048,1.512,1.048c0.582,0,1.075-0.349,1.475-1.048
	C36.508,21.015,36.71,20.17,36.71,19.177z"/>
</svg>
