<?xml version="1.0" encoding="utf-8"?>
<!-- Generator: Adobe Illustrator 16.2.1, SVG Export Plug-In . SVG Version: 6.00 Build 0)  -->
<!DOCTYPE svg PUBLIC "-//W3C//DTD SVG 1.1//EN" "http://www.w3.org/Graphics/SVG/1.1/DTD/svg11.dtd">
<svg version="1.1" id="Layer_1" xmlns="http://www.w3.org/2000/svg" xmlns:xlink="http://www.w3.org/1999/xlink" x="0px" y="0px"
	 width="36.228px" height="36px" viewBox="14.09 -0.002 36.228 36" enable-background="new 14.09 -0.002 36.228 36"
	 xml:space="preserve">
<path fill="#9E005D" d="M18.458-0.002c0.596,0,1.162,0.122,1.695,0.356c0.54,0.234,1.009,0.553,1.417,0.938
	c0.403,0.394,0.717,0.854,0.942,1.396c0.221,0.534,0.333,1.096,0.333,1.696c0,0.6-0.112,1.162-0.333,1.688
	c-0.225,0.525-0.539,0.994-0.942,1.377c-0.407,0.394-0.877,0.703-1.417,0.947c-0.533,0.234-1.101,0.356-1.695,0.356
	c-0.601,0-1.162-0.122-1.692-0.356c-0.524-0.245-0.989-0.553-1.377-0.947C15,7.065,14.685,6.596,14.446,6.072
	c-0.238-0.525-0.355-1.087-0.355-1.688c0-0.601,0.117-1.163,0.355-1.697c0.239-0.543,0.554-1.003,0.942-1.397
	c0.388-0.384,0.854-0.702,1.377-0.937C17.295,0.12,17.857-0.002,18.458-0.002z M21.718,11.349c0.245,0,0.46,0.084,0.651,0.271
	c0.191,0.188,0.291,0.403,0.291,0.666v22.766c0,0.245-0.1,0.468-0.291,0.657c-0.191,0.196-0.408,0.289-0.651,0.289h-6.457
	c-0.244,0-0.464-0.093-0.656-0.289c-0.188-0.189-0.286-0.413-0.286-0.658V12.286c0-0.244,0.1-0.458,0.286-0.657
	c0.193-0.187,0.412-0.281,0.656-0.281L21.718,11.349L21.718,11.349L21.718,11.349z M40.717,10.768c2.91,0,5.234,0.73,6.982,2.192
	c1.746,1.472,2.618,3.712,2.618,6.748V35.05c0,0.244-0.099,0.47-0.285,0.656c-0.192,0.196-0.412,0.29-0.656,0.29h-6.641
	c-0.243,0-0.455-0.094-0.633-0.29c-0.174-0.188-0.263-0.412-0.263-0.656V21.18c0-1.162-0.211-2.052-0.633-2.672
	c-0.422-0.609-1.275-0.918-2.56-0.918c-0.814,0-1.494,0.141-2.048,0.403c-0.55,0.272-0.983,0.628-1.299,1.077
	c-0.314,0.459-0.529,0.994-0.651,1.623c-0.127,0.627-0.187,1.303-0.187,2.024v12.334c0,0.245-0.095,0.47-0.287,0.657
	c-0.191,0.195-0.407,0.289-0.655,0.289H27.07c-0.243,0-0.463-0.094-0.655-0.291c-0.192-0.188-0.287-0.411-0.287-0.655V12.286
	c0-0.244,0.094-0.458,0.287-0.657c0.191-0.187,0.412-0.281,0.655-0.281h6.271c0.506,0,0.787,0.188,0.849,0.581
	c0.065,0.395,0.094,0.761,0.094,1.115c0.872-0.815,1.864-1.395,2.977-1.743C38.368,10.946,39.521,10.768,40.717,10.768z"/>
</svg>
