<?xml version="1.0" encoding="utf-8"?>
<!-- Generator: Adobe Illustrator 16.2.1, SVG Export Plug-In . SVG Version: 6.00 Build 0)  -->
<!DOCTYPE svg PUBLIC "-//W3C//DTD SVG 1.1//EN" "http://www.w3.org/Graphics/SVG/1.1/DTD/svg11.dtd">
<svg version="1.1" id="Layer_1" xmlns="http://www.w3.org/2000/svg" xmlns:xlink="http://www.w3.org/1999/xlink" x="0px" y="0px"
	 width="51.08px" height="36px" viewBox="-6.948 -9.453 51.08 36" enable-background="new -6.948 -9.453 51.08 36"
	 xml:space="preserve">
<path fill="#9E005D" d="M42.442,5.984c0.424-0.073,0.813,0,1.164,0.209c0.35,0.21,0.525,0.566,0.525,1.069
	c0,0.532-0.244,0.996-0.734,1.385c-0.492,0.384-1.058,0.73-1.701,1.033c-0.65,0.306-1.324,0.543-2.014,0.713
	c-0.69,0.165-1.23,0.266-1.617,0.305c-0.795,2.565-2.022,4.839-3.687,6.817c-1.667,1.979-3.606,3.629-5.823,4.939
	c-2.216,1.323-4.603,2.342-7.153,3.043c-2.549,0.701-5.087,1.05-7.62,1.05c-4.043,0-7.881-0.859-11.505-2.59
	c-3.619-1.729-6.621-4.252-9-7.586c-0.146-0.294-0.226-0.532-0.226-0.713c0-0.373,0.125-0.68,0.374-0.926
	c0.248-0.261,0.564-0.385,0.927-0.385c0.26,0,0.548,0.114,0.859,0.34c2.273,2.012,4.93,3.008,7.961,2.996
	c1.084,0,2.17-0.147,3.255-0.417c1.081-0.283,2.07-0.725,2.975-1.335c-0.531-0.294-0.973-0.677-1.312-1.163
	c-0.344-0.477-0.515-1.019-0.515-1.605c0-0.418,0.074-0.782,0.221-1.086c-0.328-0.102-0.746-0.293-1.232-0.562
	c-0.486-0.266-0.961-0.581-1.414-0.938c-0.453-0.362-0.832-0.758-1.137-1.198c-0.306-0.431-0.458-0.86-0.458-1.284
	c0-0.3,0.09-0.561,0.277-0.792C4.02,7.069,4.251,6.866,4.529,6.679C3.772,6.216,3.07,5.531,2.42,4.627
	c-0.645-0.905-0.966-1.81-0.966-2.713c0-0.611,0.305-1.008,0.915-1.194C1.72,0.071,1.205-0.676,0.831-1.524
	c-0.384-0.848-0.57-1.731-0.57-2.635c0-0.424,0.083-0.808,0.266-1.153c0.169-0.34,0.52-0.51,1.034-0.51
	c0.333,0,1.113,0.249,2.33,0.747c1.215,0.498,2.538,1.057,3.952,1.679c1.413,0.616,2.764,1.244,4.059,1.872
	c1.289,0.627,2.193,1.068,2.713,1.328c0.464,0.26,0.905,0.549,1.318,0.87c0.412,0.323,0.825,0.663,1.232,1.013
	c0.367-0.939,0.809-1.922,1.306-2.952c0.498-1.024,1.052-2.007,1.664-2.952c0.609-0.938,1.283-1.831,2.023-2.657
	c0.736-0.836,1.56-1.514,2.464-2.051c0.148-0.115,0.368-0.17,0.668-0.17c0.328,0,0.577,0.073,0.747,0.22
	c0.293-0.108,0.679-0.232,1.153-0.374c0.463-0.136,0.857-0.204,1.175-0.204c0.532,0,0.928,0.249,1.187,0.746
	c0.578,0,1.098,0.147,1.573,0.43c0.463,0.289,0.701,0.752,0.701,1.402c0,0.57-0.25,1.063-0.747,1.464
	c1.775,0.798,3.246,1.951,4.422,3.467c1.175,1.514,2.012,3.199,2.51,5.042c0.106,0.039,0.315,0.057,0.633,0.057
	c0.871,0,1.686-0.152,2.442-0.458c0.759-0.305,1.282-0.458,1.576-0.458c0.335,0,0.628,0.136,0.877,0.401
	c0.248,0.272,0.373,0.571,0.373,0.905c0,0.423-0.181,0.87-0.543,1.34C43.007,5.362,42.702,5.724,42.442,5.984z"/>
</svg>
