<svg xmlns="http://www.w3.org/2000/svg" width="751" height="201"><path fill="#fff" stroke="#eee" stroke-miterlimit="10" d="M.5 107.076v-96.576c0-5.5 4.5-10 10-10h730c5.5 0 10 4.5 10 10v190h-750v-190c0-5.5 4.5-10 10-10h730c5.5 0 10 4.5 10 10v0c0-5.5-4.5-10-10-10h-730c-5.5 0-10 4.5-10 10v0c0-5.5 4.5-10 10-10h730c5.5 0 10 4.5 10 10"/><path stroke="#eee" stroke-miterlimit="10" d="M750.5 27.076v-16.576c0-5.5-4.5-10-10-10h-730c-5.5 0-10 4.5-10 10v0c0-5.5 4.5-10 10-10h730c5.5 0 10 4.5 10 10" fill="none"/><path fill="#eee" d="M.5 10.5c0-5.5 4.5-10 10-10h730c5.5 0 10 4.5 10 10v24h-750v-24z"/><path stroke="#eee" stroke-miterlimit="10" d="M.5 10.5c0-5.5 4.5-10 10-10h730c5.5 0 10 4.5 10 10" fill="none"/><circle fill="#D95648" cx="27.583" cy="17.5" r="7.5"/><circle fill="#F1C40F" cx="52.583" cy="17.5" r="7.5"/><circle fill="#2DCC70" cx="77.583" cy="17.5" r="7.5"/></svg>