<?xml version="1.0" encoding="utf-8"?>
<!-- Generator: Adobe Illustrator 17.0.2, SVG Export Plug-In . SVG Version: 6.00 Build 0)  -->
<!DOCTYPE svg PUBLIC "-//W3C//DTD SVG 1.1//EN" "http://www.w3.org/Graphics/SVG/1.1/DTD/svg11.dtd">
<svg version="1.1" id="Layer_1" xmlns="http://www.w3.org/2000/svg" xmlns:xlink="http://www.w3.org/1999/xlink" x="0px" y="0px"
	 width="751px" height="201px" viewBox="0 0 751 201" enable-background="new 0 0 751 201" xml:space="preserve">
<g>
	<path fill="#FFFFFF" stroke="#EEEEEE" stroke-miterlimit="10" d="M0.5,107.076V10.5c0-5.5,4.5-10,10-10h730c5.5,0,10,4.5,10,10
		v96.576V200.5H0.5V107.076V10.5c0-5.5,4.5-10,10-10h730c5.5,0,10,4.5,10,10v96.576v-10V10.5c0-5.5-4.5-10-10-10h-730
		c-5.5,0-10,4.5-10,10v86.576V10.5c0-5.5,4.5-10,10-10h730c5.5,0,10,4.5,10,10"/>
</g>
<g>
	<path fill="none" stroke="#EEEEEE" stroke-miterlimit="10" d="M750.5,27.076V10.5c0-5.5-4.5-10-10-10h-730c-5.5,0-10,4.5-10,10
		v16.576V10.5c0-5.5,4.5-10,10-10h730c5.5,0,10,4.5,10,10"/>
	<path fill="#EEEEEE" d="M0.5,10.5c0-5.5,4.5-10,10-10h730c5.5,0,10,4.5,10,10v24H0.5V10.5z"/>
	<path fill="none" stroke="#EEEEEE" stroke-miterlimit="10" d="M0.5,10.5c0-5.5,4.5-10,10-10h730c5.5,0,10,4.5,10,10"/>
</g>
<circle fill="#D95648" cx="27.583" cy="17.5" r="7.5"/>
<circle fill="#F1C40F" cx="52.583" cy="17.5" r="7.5"/>
<circle fill="#2DCC70" cx="77.583" cy="17.5" r="7.5"/>
<g>
</g>
<g>
</g>
<g>
</g>
<g>
</g>
<g>
</g>
<g>
</g>
</svg>
