<?xml version="1.0" encoding="utf-8"?>
<!-- Generator: Adobe Illustrator 17.0.2, SVG Export Plug-In . SVG Version: 6.00 Build 0)  -->
<!DOCTYPE svg PUBLIC "-//W3C//DTD SVG 1.1//EN" "http://www.w3.org/Graphics/SVG/1.1/DTD/svg11.dtd">
<svg version="1.1" id="Layer_1" xmlns="http://www.w3.org/2000/svg" xmlns:xlink="http://www.w3.org/1999/xlink" x="0px" y="0px"
	 width="754px" height="205.003px" viewBox="0 0 754 205.003" enable-background="new 0 0 754 205.003" xml:space="preserve">
<g>
	<path fill="#FFFFFF" stroke="#FFFFFF" stroke-width="4" stroke-miterlimit="10" d="M742,2c5.5,0,10,4.5,10,10v190"/>
	<path fill="#FFFFFF" stroke="#FFFFFF" stroke-width="4" stroke-miterlimit="10" d="M2,46.667V203h750V12c0-5.5-4.5-10-10-10
		L45.418,1.932L2,46.667z"/>
</g>
<path fill="#EEEEEE" d="M45.673,1l0.167,37.446c0,4.451-3.609,8.06-8.06,8.06L0,46.673L45.673,1z"/>
<g>
	<path fill="#ECD9C5" d="M681.682,45.318c-1.051,1.272-0.56,2.313,1.09,2.313h34c1.65,0,2.136-1.037,1.08-2.305l-10.249-12.307
		c-1.056-1.268-3.27-2.305-4.92-2.305h-5.941c-1.65,0-3.86,1.041-4.91,2.313L681.682,45.318z"/>
</g>
<rect x="680.486" y="47.631" fill="#FAC545" width="38.571" height="111.286"/>
<rect x="681.201" y="169.774" fill="#F19F86" width="37.143" height="13.571"/>
<rect x="679.772" y="159.458" fill="#FFFFFF" width="38.571" height="10.315"/>
<g>
	<path fill="none" stroke="#231F20" stroke-width="4" stroke-miterlimit="10" d="M680.417,50.631c0-1.65,0.615-4.051,1.651-5.335
		l15.163-18.932c1.036-1.284,2.674-1.284,3.71,0l15.436,18.932c1.036,1.284,2.04,3.685,2.04,5.335v130.714
		c0,1.65-1.721,2.821-3.371,2.821h-32.095c-1.65,0-2.534-1.171-2.534-2.821V50.631z"/>
</g>
<line fill="none" stroke="#231F20" stroke-width="4" stroke-miterlimit="10" x1="716.417" y1="170.167" x2="680.417" y2="170.167"/>
<line fill="none" stroke="#231F20" stroke-width="4" stroke-miterlimit="10" x1="716.417" y1="164.167" x2="679.417" y2="164.167"/>
<line fill="none" stroke="#231F20" stroke-width="4" stroke-miterlimit="10" x1="716.417" y1="158.167" x2="680.417" y2="158.167"/>
<line fill="none" stroke="#231F20" stroke-width="4" stroke-miterlimit="10" x1="718.417" y1="47.167" x2="679.417" y2="47.167"/>
<g>
	<path fill="#231F20" d="M696.028,31.167c-1.65,0-2.152-0.92-1.116-2.204l2.202-2.664c1.036-1.284,2.732-1.251,3.768,0.033
		l2.202,2.615c1.036,1.284,0.534,2.22-1.116,2.22H696.028z"/>
</g>
<line fill="none" stroke="#231F20" stroke-width="4" stroke-miterlimit="10" x1="706.915" y1="48.345" x2="706.915" y2="158.974"/>
<line fill="none" stroke="#231F20" stroke-width="4" stroke-miterlimit="10" x1="691.201" y1="48.345" x2="691.201" y2="158.974"/>
<g>
</g>
<g>
</g>
<g>
</g>
<g>
</g>
<g>
</g>
<g>
</g>
</svg>
